<?xml version="1.0" standalone="no"?><svg xmlns:xlink="http://www.w3.org/1999/xlink" xmlns="http://www.w3.org/2000/svg" viewBox="0 0 1000 562.5023053373169" preserveAspectRatio="xMaxYMax slice"><g transform="scale(0.9221349267824868)"><rect x="0" y="0" width="1084.4444444444443" height="610" fill="#fbf9fb"/><rect x="6.777777777777778" y="6.777777777777778" width="54.222222222222214" height="54.222222222222214" fill="#fbf9fb"/><path d="M 6.78 33.89 A 27.11 27.11 0 0 1  33.89 6.78 L 6.78 33.89 A 27.11 27.11 0 0 0 33.89 6.78" fill="#f4eef5"/><path d="M 33.89 6.78 A 27.11 27.11 0 0 1  61 33.89 L 33.89 6.78 A 27.11 27.11 0 0 0 61 33.89" fill="#cdb0d1"/><rect x="74.55555555555554" y="6.777777777777778" width="54.222222222222214" height="54.222222222222214" fill="#fbf9fb"/><path d="M 101.67 33.89 A 27.11 27.11 0 0 1  128.78 6.78 L 101.67 33.89 A 27.11 27.11 0 0 0 128.78 6.78" fill="#d9c3dc"/><path d="M 74.56 61 A 27.11 27.11 0 0 1  101.67 33.89 L 74.56 61 A 27.11 27.11 0 0 0 101.67 33.89" fill="#faf8fa"/><rect x="210.1111111111111" y="6.777777777777778" width="54.222222222222214" height="54.222222222222214" fill="#fbf9fb"/><path d="M 237.22 61 A 27.11 27.11 0 0 1  264.33 33.89 L 237.22 61 A 27.11 27.11 0 0 0 264.33 33.89" fill="#cbadd0"/><rect x="549" y="6.777777777777778" width="54.222222222222214" height="54.222222222222214" fill="#fbf9fb"/><path d="M 549 33.89 A 27.11 27.11 0 0 1  576.11 6.78 L 549 33.89 A 27.11 27.11 0 0 0 576.11 6.78" fill="#e8dbea"/><path d="M 576.11 33.89 A 27.11 27.11 0 0 1  603.22 6.78 L 576.11 33.89 A 27.11 27.11 0 0 0 603.22 6.78" fill="#c19dc6"/><path d="M 576.11 61 A 27.11 27.11 0 0 1  603.22 33.89 L 576.11 61 A 27.11 27.11 0 0 0 603.22 33.89" fill="#c4a1c9"/><rect x="616.7777777777778" y="6.777777777777778" width="54.222222222222214" height="54.222222222222214" fill="#fbf9fb"/><path d="M 643.89 33.89 A 27.11 27.11 0 0 1  671 6.78 L 643.89 33.89 A 27.11 27.11 0 0 0 671 6.78" fill="#ba90bf"/><rect x="820.1111111111111" y="6.777777777777778" width="54.222222222222214" height="54.222222222222214" fill="#fbf9fb"/><path d="M 820.11 6.78 A 27.11 27.11 0 0 1  847.22 33.89 L 820.11 6.78 A 27.11 27.11 0 0 0 847.22 33.89" fill="#f8f5f8"/><path d="M 847.22 6.78 A 27.11 27.11 0 0 1  874.33 33.89 L 847.22 6.78 A 27.11 27.11 0 0 0 874.33 33.89" fill="#c5a2c9"/><path d="M 820.11 33.89 A 27.11 27.11 0 0 1  847.22 61 L 820.11 33.89 A 27.11 27.11 0 0 0 847.22 61" fill="#efe6f0"/><path d="M 847.22 61 A 27.11 27.11 0 0 1  874.33 33.89 L 847.22 61 A 27.11 27.11 0 0 0 874.33 33.89" fill="#d3b9d7"/><rect x="1023.4444444444443" y="6.777777777777778" width="54.222222222222214" height="54.222222222222214" fill="#fbf9fb"/><path d="M 1023.44 33.89 A 27.11 27.11 0 0 1  1050.55 6.78 L 1023.44 33.89 A 27.11 27.11 0 0 0 1050.55 6.78" fill="#d3b9d6"/><path d="M 1050.56 33.89 A 27.11 27.11 0 0 1  1077.6699999999998 61 L 1050.56 33.89 A 27.11 27.11 0 0 0 1077.6699999999998 61" fill="#e2d0e4"/><rect x="142.33333333333331" y="74.55555555555554" width="54.222222222222214" height="54.222222222222214" fill="#fbf9fb"/><rect x="210.1111111111111" y="74.55555555555554" width="54.222222222222214" height="54.222222222222214" fill="#fbf9fb"/><rect x="345.66666666666663" y="74.55555555555554" width="54.222222222222214" height="54.222222222222214" fill="#fbf9fb"/><path d="M 372.78 101.67 A 27.11 27.11 0 0 1  399.89 74.56 L 372.78 101.67 A 27.11 27.11 0 0 0 399.89 74.56" fill="#c8a7cc"/><path d="M 372.78 101.67 A 27.11 27.11 0 0 1  399.89 128.78 L 372.78 101.67 A 27.11 27.11 0 0 0 399.89 128.78" fill="#8e4a97"/><rect x="481.2222222222222" y="74.55555555555554" width="54.222222222222214" height="54.222222222222214" fill="#fbf9fb"/><path d="M 508.33 101.67 A 27.11 27.11 0 0 1  535.4399999999999 74.56 L 508.33 101.67 A 27.11 27.11 0 0 0 535.4399999999999 74.56" fill="#9d62a5"/><path d="M 481.22 101.67 A 27.11 27.11 0 0 1  508.33000000000004 128.78 L 481.22 101.67 A 27.11 27.11 0 0 0 508.33000000000004 128.78" fill="#e0cee2"/><path d="M 508.33 128.78 A 27.11 27.11 0 0 1  535.4399999999999 101.67 L 508.33 128.78 A 27.11 27.11 0 0 0 535.4399999999999 101.67" fill="#d2b7d5"/><rect x="684.5555555555555" y="74.55555555555554" width="54.222222222222214" height="54.222222222222214" fill="#fbf9fb"/><path d="M 684.56 101.67 A 27.11 27.11 0 0 1  711.67 128.78 L 684.56 101.67 A 27.11 27.11 0 0 0 711.67 128.78" fill="#c39fc8"/><rect x="752.3333333333333" y="74.55555555555554" width="54.222222222222214" height="54.222222222222214" fill="#fbf9fb"/><rect x="955.6666666666666" y="74.55555555555554" width="54.222222222222214" height="54.222222222222214" fill="#fbf9fb"/><path d="M 955.67 101.67 A 27.11 27.11 0 0 1  982.78 74.56 L 955.67 101.67 A 27.11 27.11 0 0 0 982.78 74.56" fill="#b588ba"/><rect x="6.777777777777778" y="142.33333333333331" width="54.222222222222214" height="54.222222222222214" fill="#fbf9fb"/><path d="M 6.78 169.44 A 27.11 27.11 0 0 1  33.89 142.33 L 6.78 169.44 A 27.11 27.11 0 0 0 33.89 142.33" fill="#f0e7f1"/><rect x="142.33333333333331" y="142.33333333333331" width="54.222222222222214" height="54.222222222222214" fill="#fbf9fb"/><path d="M 169.44 142.33 A 27.11 27.11 0 0 1  196.55 169.44 L 169.44 142.33 A 27.11 27.11 0 0 0 196.55 169.44" fill="#b588ba"/><path d="M 142.33 196.55 A 27.11 27.11 0 0 1  169.44 169.44 L 142.33 196.55 A 27.11 27.11 0 0 0 169.44 169.44" fill="#d2b7d5"/><path d="M 169.44 169.44 A 27.11 27.11 0 0 1  196.55 196.55 L 169.44 169.44 A 27.11 27.11 0 0 0 196.55 196.55" fill="#d1b5d4"/><rect x="549" y="142.33333333333331" width="54.222222222222214" height="54.222222222222214" fill="#fbf9fb"/><path d="M 576.11 169.44 A 27.11 27.11 0 0 1  603.22 142.33 L 576.11 169.44 A 27.11 27.11 0 0 0 603.22 142.33" fill="#caaacd"/><rect x="684.5555555555555" y="142.33333333333331" width="54.222222222222214" height="54.222222222222214" fill="#fbf9fb"/><rect x="752.3333333333333" y="142.33333333333331" width="54.222222222222214" height="54.222222222222214" fill="#fbf9fb"/><path d="M 779.44 196.55 A 27.11 27.11 0 0 1  806.5500000000001 169.44 L 779.44 196.55 A 27.11 27.11 0 0 0 806.5500000000001 169.44" fill="#8d4996"/><rect x="955.6666666666666" y="142.33333333333331" width="54.222222222222214" height="54.222222222222214" fill="#fbf9fb"/><rect x="1023.4444444444443" y="142.33333333333331" width="54.222222222222214" height="54.222222222222214" fill="#fbf9fb"/><path d="M 1023.44 169.44 A 27.11 27.11 0 0 1  1050.55 142.33 L 1023.44 169.44 A 27.11 27.11 0 0 0 1050.55 142.33" fill="#c29ec7"/><rect x="413.4444444444444" y="210.1111111111111" width="54.222222222222214" height="54.222222222222214" fill="#fbf9fb"/><path d="M 440.56 210.11 A 27.11 27.11 0 0 1  467.67 237.22000000000003 L 440.56 210.11 A 27.11 27.11 0 0 0 467.67 237.22000000000003" fill="#d0b3d3"/><path d="M 440.56 264.33 A 27.11 27.11 0 0 1  467.67 237.22 L 440.56 264.33 A 27.11 27.11 0 0 0 467.67 237.22" fill="#f8f5f9"/><rect x="549" y="210.1111111111111" width="54.222222222222214" height="54.222222222222214" fill="#fbf9fb"/><path d="M 576.11 237.22 A 27.11 27.11 0 0 1  603.22 264.33 L 576.11 237.22 A 27.11 27.11 0 0 0 603.22 264.33" fill="#e7dae9"/><rect x="887.8888888888889" y="210.1111111111111" width="54.222222222222214" height="54.222222222222214" fill="#fbf9fb"/><path d="M 887.89 237.22000000000003 A 27.11 27.11 0 0 1  915 210.11 L 887.89 237.22000000000003 A 27.11 27.11 0 0 0 915 210.11" fill="#f0e7f1"/><path d="M 915 237.22 A 27.11 27.11 0 0 1  942.11 264.33 L 915 237.22 A 27.11 27.11 0 0 0 942.11 264.33" fill="#b98fbe"/><rect x="1023.4444444444443" y="210.1111111111111" width="54.222222222222214" height="54.222222222222214" fill="#fbf9fb"/><path d="M 1050.56 237.22 A 27.11 27.11 0 0 1  1077.6699999999998 264.33 L 1050.56 237.22 A 27.11 27.11 0 0 0 1077.6699999999998 264.33" fill="#c6a4ca"/><rect x="6.777777777777778" y="277.88888888888886" width="54.222222222222214" height="54.222222222222214" fill="#fbf9fb"/><rect x="481.2222222222222" y="277.88888888888886" width="54.222222222222214" height="54.222222222222214" fill="#fbf9fb"/><path d="M 508.33 277.89 A 27.11 27.11 0 0 1  535.4399999999999 305 L 508.33 277.89 A 27.11 27.11 0 0 0 535.4399999999999 305" fill="#faf8fa"/><rect x="549" y="277.88888888888886" width="54.222222222222214" height="54.222222222222214" fill="#fbf9fb"/><path d="M 549 277.89 A 27.11 27.11 0 0 1  576.11 305 L 549 277.89 A 27.11 27.11 0 0 0 576.11 305" fill="#c29ec7"/><rect x="752.3333333333333" y="277.88888888888886" width="54.222222222222214" height="54.222222222222214" fill="#fbf9fb"/><path d="M 752.33 305 A 27.11 27.11 0 0 1  779.44 332.11 L 752.33 305 A 27.11 27.11 0 0 0 779.44 332.11" fill="#92519b"/><rect x="955.6666666666666" y="277.88888888888886" width="54.222222222222214" height="54.222222222222214" fill="#fbf9fb"/><rect x="1023.4444444444443" y="277.88888888888886" width="54.222222222222214" height="54.222222222222214" fill="#fbf9fb"/><path d="M 1023.44 305 A 27.11 27.11 0 0 1  1050.55 332.11 L 1023.44 305 A 27.11 27.11 0 0 0 1050.55 332.11" fill="#cfb3d3"/><path d="M 1050.56 305 A 27.11 27.11 0 0 1  1077.6699999999998 332.11 L 1050.56 305 A 27.11 27.11 0 0 0 1077.6699999999998 332.11" fill="#a169a9"/><rect x="74.55555555555554" y="345.66666666666663" width="54.222222222222214" height="54.222222222222214" fill="#fbf9fb"/><rect x="413.4444444444444" y="345.66666666666663" width="54.222222222222214" height="54.222222222222214" fill="#fbf9fb"/><path d="M 413.44 372.78000000000003 A 27.11 27.11 0 0 1  440.55 345.67 L 413.44 372.78000000000003 A 27.11 27.11 0 0 0 440.55 345.67" fill="#c5a2c9"/><path d="M 440.56 345.67 A 27.11 27.11 0 0 1  467.67 372.78000000000003 L 440.56 345.67 A 27.11 27.11 0 0 0 467.67 372.78000000000003" fill="#d0b5d4"/><rect x="481.2222222222222" y="345.66666666666663" width="54.222222222222214" height="54.222222222222214" fill="#fbf9fb"/><rect x="684.5555555555555" y="345.66666666666663" width="54.222222222222214" height="54.222222222222214" fill="#fbf9fb"/><rect x="820.1111111111111" y="345.66666666666663" width="54.222222222222214" height="54.222222222222214" fill="#fbf9fb"/><path d="M 820.11 372.78000000000003 A 27.11 27.11 0 0 1  847.22 345.67 L 820.11 372.78000000000003 A 27.11 27.11 0 0 0 847.22 345.67" fill="#ede2ee"/><path d="M 847.22 372.78000000000003 A 27.11 27.11 0 0 1  874.33 345.67 L 847.22 372.78000000000003 A 27.11 27.11 0 0 0 874.33 345.67" fill="#8f4b98"/><path d="M 820.11 372.78 A 27.11 27.11 0 0 1  847.22 399.89 L 820.11 372.78 A 27.11 27.11 0 0 0 847.22 399.89" fill="#b88dbd"/><path d="M 847.22 372.78 A 27.11 27.11 0 0 1  874.33 399.89 L 847.22 372.78 A 27.11 27.11 0 0 0 874.33 399.89" fill="#c7a5cb"/><rect x="887.8888888888889" y="345.66666666666663" width="54.222222222222214" height="54.222222222222214" fill="#fbf9fb"/><path d="M 915 372.78 A 27.11 27.11 0 0 1  942.11 399.89 L 915 372.78 A 27.11 27.11 0 0 0 942.11 399.89" fill="#f4eef5"/><rect x="955.6666666666666" y="345.66666666666663" width="54.222222222222214" height="54.222222222222214" fill="#fbf9fb"/><rect x="74.55555555555554" y="413.4444444444444" width="54.222222222222214" height="54.222222222222214" fill="#fbf9fb"/><path d="M 74.56 467.67 A 27.11 27.11 0 0 1  101.67 440.56 L 74.56 467.67 A 27.11 27.11 0 0 0 101.67 440.56" fill="#dac4dc"/><rect x="210.1111111111111" y="413.4444444444444" width="54.222222222222214" height="54.222222222222214" fill="#fbf9fb"/><path d="M 210.11 413.44 A 27.11 27.11 0 0 1  237.22000000000003 440.55 L 210.11 413.44 A 27.11 27.11 0 0 0 237.22000000000003 440.55" fill="#b68bbc"/><rect x="345.66666666666663" y="413.4444444444444" width="54.222222222222214" height="54.222222222222214" fill="#fbf9fb"/><rect x="820.1111111111111" y="413.4444444444444" width="54.222222222222214" height="54.222222222222214" fill="#fbf9fb"/><path d="M 820.11 467.67 A 27.11 27.11 0 0 1  847.22 440.56 L 820.11 467.67 A 27.11 27.11 0 0 0 847.22 440.56" fill="#a976b0"/><rect x="74.55555555555554" y="481.2222222222222" width="54.222222222222214" height="54.222222222222214" fill="#fbf9fb"/><rect x="277.88888888888886" y="481.2222222222222" width="54.222222222222214" height="54.222222222222214" fill="#fbf9fb"/><path d="M 305 481.22 A 27.11 27.11 0 0 1  332.11 508.33000000000004 L 305 481.22 A 27.11 27.11 0 0 0 332.11 508.33000000000004" fill="#c6a4ca"/><rect x="345.66666666666663" y="481.2222222222222" width="54.222222222222214" height="54.222222222222214" fill="#fbf9fb"/><path d="M 345.67 508.33000000000004 A 27.11 27.11 0 0 1  372.78000000000003 481.22 L 345.67 508.33000000000004 A 27.11 27.11 0 0 0 372.78000000000003 481.22" fill="#f3ecf4"/><path d="M 345.67 535.4399999999999 A 27.11 27.11 0 0 1  372.78000000000003 508.33 L 345.67 535.4399999999999 A 27.11 27.11 0 0 0 372.78000000000003 508.33" fill="#e9dceb"/><rect x="413.4444444444444" y="481.2222222222222" width="54.222222222222214" height="54.222222222222214" fill="#fbf9fb"/><path d="M 440.56 481.22 A 27.11 27.11 0 0 1  467.67 508.33000000000004 L 440.56 481.22 A 27.11 27.11 0 0 0 467.67 508.33000000000004" fill="#ab79b2"/><rect x="887.8888888888889" y="481.2222222222222" width="54.222222222222214" height="54.222222222222214" fill="#fbf9fb"/><path d="M 915 481.22 A 27.11 27.11 0 0 1  942.11 508.33000000000004 L 915 481.22 A 27.11 27.11 0 0 0 942.11 508.33000000000004" fill="#e2d1e4"/><path d="M 887.89 535.4399999999999 A 27.11 27.11 0 0 1  915 508.33 L 887.89 535.4399999999999 A 27.11 27.11 0 0 0 915 508.33" fill="#c9a8cd"/><path d="M 915 535.4399999999999 A 27.11 27.11 0 0 1  942.11 508.33 L 915 535.4399999999999 A 27.11 27.11 0 0 0 942.11 508.33" fill="#c6a4ca"/><rect x="6.777777777777778" y="549" width="54.222222222222214" height="54.222222222222214" fill="#fbf9fb"/><path d="M 6.78 549 A 27.11 27.11 0 0 1  33.89 576.11 L 6.78 549 A 27.11 27.11 0 0 0 33.89 576.11" fill="#d0b4d4"/><path d="M 33.89 576.11 A 27.11 27.11 0 0 1  61 549 L 33.89 576.11 A 27.11 27.11 0 0 0 61 549" fill="#ac7ab2"/><rect x="210.1111111111111" y="549" width="54.222222222222214" height="54.222222222222214" fill="#fbf9fb"/><path d="M 210.11 549 A 27.11 27.11 0 0 1  237.22000000000003 576.11 L 210.11 549 A 27.11 27.11 0 0 0 237.22000000000003 576.11" fill="#92519b"/><rect x="277.88888888888886" y="549" width="54.222222222222214" height="54.222222222222214" fill="#fbf9fb"/><rect x="413.4444444444444" y="549" width="54.222222222222214" height="54.222222222222214" fill="#fbf9fb"/><path d="M 413.44 549 A 27.11 27.11 0 0 1  440.55 576.11 L 413.44 549 A 27.11 27.11 0 0 0 440.55 576.11" fill="#d1b6d5"/><path d="M 440.56 576.11 A 27.11 27.11 0 0 1  467.67 549 L 440.56 576.11 A 27.11 27.11 0 0 0 467.67 549" fill="#f1e9f2"/><path d="M 413.44 576.11 A 27.11 27.11 0 0 1  440.55 603.22 L 413.44 576.11 A 27.11 27.11 0 0 0 440.55 603.22" fill="#a671ae"/><rect x="549" y="549" width="54.222222222222214" height="54.222222222222214" fill="#fbf9fb"/><path d="M 549 576.11 A 27.11 27.11 0 0 1  576.11 549 L 549 576.11 A 27.11 27.11 0 0 0 576.11 549" fill="#9b5fa3"/></g></svg>